# xmcd
#
# Track frame offsets: 
#        150
#        11883
#        30003
#        46490
#        60708
#        79335
#        89628
#        106863
#        122275
#        145800
#        164080
#        176940
#        195753
#        212308
#        232508
#        246860
#
# Disc length: 3478 seconds
#
# Revision: 3
# Processed by: cddbd v1.5.2PL0 Copyright (c) Steve Scherf et al.
# Submitted via: ExactAudioCopy v1.0b3
#
DISCID=c70d9410
DTITLE=Steve Earle - Ain't Ever Satisfied (The Steve Earle Collection)
DTITLE=Various Artist - Disc 1
DYEAR=1996
DGENRE=Country
TTITLE0=Guitar Town
TTITLE1=Good Ol' Boy (Gettin' Tough)
TTITLE2=Hillbilly Highway
TTITLE3=My Old Friend The Blues
TTITLE4=Fearless Heart
TTITLE5=Think It Over
TTITLE6=Someday
TTITLE7=Goodbye's All We Got Left
TTITLE8=State Trooper (Live)
TTITLE9=I Ain't Ever Satisfied
TTITLE10=Nowhere Road
TTITLE11=The Rain Came Down
TTITLE12=I Love You Too Much
TTITLE13=The Week Of Living Dangerously
TTITLE14=Continental Trailway Blues
TTITLE15=Six Days On The Road
EXTD=
EXTT0=
EXTT1=
EXTT2=
EXTT3=
EXTT4=
EXTT5=
EXTT6=
EXTT7=
EXTT8=
EXTT9=
EXTT10=
EXTT11=
EXTT12=
EXTT13=
EXTT14=
EXTT15=
PLAYORDER=
